<?xml version="1.0" encoding="UTF-8"?>
<svg width="250px" height="250px" viewBox="0 0 250 250" version="1.1" xmlns="http://www.w3.org/2000/svg" xmlns:xlink="http://www.w3.org/1999/xlink">
  <title>icons</title>
  <defs></defs>
  <g id="Page-1" stroke="none" stroke-width="1" fill="none" fill-rule="evenodd">
    <g id="Artboard" transform="translate(-3.000000, -3.000000)" fill="#000000" fill-rule="nonzero">
      <g id="icons" transform="translate(3.000000, 3.000000)">
          <g id="youtube" transform="translate(0.000000, 34.888000)">
              <path d="M244.739583,28.1338311 C241.793656,17.2960126 233.545242,8.82711303 222.989583,5.80243911 C203.510417,0.444188444 125.114583,0.444188444 125.114583,0.444188444 C125.114583,0.444188444 46.9166667,0.337237333 27.2395833,5.80243911 C16.6839246,8.82711303 8.43551065,17.2960126 5.48958333,28.1338311 C1.79708952,48.6097342 -0.0233276218,69.3951718 0.0520833333,90.2189511 C-0.00907155035,110.964154 1.81128592,131.670139 5.48958333,152.068779 C8.43551065,162.906597 16.6839246,171.375497 27.2395833,174.400171 C46.6979167,179.769116 125.114583,179.769116 125.114583,179.769116 C125.114583,179.769116 203.302083,179.769116 222.989583,174.400171 C233.545242,171.375497 241.793656,162.906597 244.739583,152.068779 C248.341034,131.66275 250.084666,110.956825 249.947917,90.2189511 C250.098921,69.4025278 248.355231,48.6171504 244.739583,28.1338311 Z M100.09375,128.625095 L100.09375,51.6951609 L165.34375,90.2189511 L100.09375,128.625095 Z" id="Shape"></path>
          </g>
          <g id="spotify">
              <path d="M125,0 C56.25,0 0,56.25 0,125 C0,193.75 56.25,250 125,250 C193.75,250 250,193.75 250,125 C250,56.25 194.375,0 125,0 Z M182.510417,180.625 C180.010417,184.364583 175.635417,185.625 171.875,183.125 C142.5,165 105.625,161.239583 61.8645833,171.239583 C57.5104167,172.510417 53.75,169.375 52.5,165.625 C51.25,161.239583 54.375,157.5 58.125,156.25 C105.625,145.614583 146.875,150 179.375,170 C183.75,171.875 184.364583,176.864583 182.510417,180.625 Z M197.510417,146.25 C194.375,150.625 188.75,152.5 184.364583,149.375 C150.625,128.75 99.375,122.5 60,135 C55.0104167,136.25 49.375,133.75 48.125,128.75 C46.875,123.75 49.375,118.114583 54.375,116.864583 C100,103.125 156.25,110.010417 195,133.75 C198.760417,135.635417 200.625,141.875 197.510417,146.25 Z M198.760417,111.25 C158.75,87.5 91.875,85 53.75,96.8854167 C47.5,98.75 41.25,95 39.375,89.375 C37.5,83.1145833 41.25,76.875 46.875,74.9895833 C91.25,61.8645833 164.375,64.3645833 210.635417,91.875 C216.25,95 218.125,102.5 215,108.125 C211.885417,112.510417 204.375,114.364583 198.760417,111.25 Z" id="Shape"></path>
          </g>
          <g id="instagram">
              <path d="M125,0 C91.0416667,0 86.8020833,0.15625 73.46875,0.75 C60.15625,1.375 51.09375,3.46875 43.125,6.5625 C34.90625,9.75 27.9270833,14.03125 20.9791667,20.9791667 C14.03125,27.9270833 9.73958333,34.8958333 6.5625,43.125 C3.46875,51.09375 1.36458333,60.15625 0.75,73.46875 C0.125,86.8020833 0,91.0416667 0,125 C0,158.958333 0.15625,163.197917 0.75,176.53125 C1.375,189.833333 3.46875,198.90625 6.5625,206.875 C9.75,215.083333 14.03125,222.072917 20.9791667,229.020833 C27.9270833,235.958333 34.8958333,240.260417 43.125,243.4375 C51.1041667,246.520833 60.1666667,248.635417 73.46875,249.25 C86.8020833,249.875 91.0416667,250 125,250 C158.958333,250 163.197917,249.84375 176.53125,249.25 C189.833333,248.625 198.90625,246.520833 206.875,243.4375 C215.083333,240.25 222.072917,235.958333 229.020833,229.020833 C235.958333,222.072917 240.260417,215.114583 243.4375,206.875 C246.520833,198.90625 248.635417,189.833333 249.25,176.53125 C249.875,163.197917 250,158.958333 250,125 C250,91.0416667 249.84375,86.8020833 249.25,73.46875 C248.625,60.1666667 246.520833,51.0833333 243.4375,43.125 C240.25,34.90625 235.958333,27.9270833 229.020833,20.9791667 C222.072917,14.03125 215.114583,9.73958333 206.875,6.5625 C198.90625,3.46875 189.833333,1.36458333 176.53125,0.75 C163.197917,0.125 158.958333,0 125,0 Z M125,22.5 C158.364583,22.5 162.34375,22.6666667 175.520833,23.2395833 C187.708333,23.8125 194.322917,25.8333333 198.71875,27.5625 C204.572917,29.8229167 208.71875,32.53125 213.114583,36.8958333 C217.479167,41.2708333 220.1875,45.4270833 222.447917,51.28125 C224.15625,55.6770833 226.197917,62.2916667 226.75,74.4791667 C227.34375,87.6666667 227.479167,91.625 227.479167,125 C227.479167,158.375 227.322917,162.34375 226.708333,175.520833 C226.072917,187.708333 224.041667,194.322917 222.322917,198.71875 C219.989583,204.572917 217.333333,208.71875 212.958333,213.114583 C208.59375,217.479167 204.375,220.1875 198.583333,222.447917 C194.208333,224.15625 187.489583,226.197917 175.302083,226.75 C162.03125,227.34375 158.125,227.479167 124.6875,227.479167 C91.2395833,227.479167 87.3333333,227.322917 74.0729167,226.708333 C61.875,226.072917 55.15625,224.041667 50.78125,222.322917 C44.8541667,219.989583 40.78125,217.333333 36.4166667,212.958333 C32.03125,208.59375 29.2291667,204.375 27.0416667,198.583333 C25.3229167,194.208333 23.3020833,187.489583 22.6666667,175.302083 C22.1979167,162.177083 22.03125,158.125 22.03125,124.84375 C22.03125,91.5520833 22.1979167,87.4895833 22.6666667,74.2083333 C23.3020833,62.0208333 25.3229167,55.3125 27.0416667,50.9375 C29.2291667,45 32.03125,40.9375 36.4166667,36.5520833 C40.78125,32.1875 44.8541667,29.375 50.78125,27.1979167 C55.15625,25.46875 61.7291667,23.4375 73.9166667,22.8125 C87.1979167,22.34375 91.1041667,22.1875 124.53125,22.1875 L125,22.5 Z M125,60.8125 C89.53125,60.8125 60.8125,89.5625 60.8125,125 C60.8125,160.46875 89.5625,189.1875 125,189.1875 C160.46875,189.1875 189.1875,160.4375 189.1875,125 C189.1875,89.53125 160.4375,60.8125 125,60.8125 Z M125,166.666667 C101.979167,166.666667 83.3333333,148.020833 83.3333333,125 C83.3333333,101.979167 101.979167,83.3333333 125,83.3333333 C148.020833,83.3333333 166.666667,101.979167 166.666667,125 C166.666667,148.020833 148.020833,166.666667 125,166.666667 Z M206.729167,58.28125 C206.729167,66.5625 200,73.28125 191.729167,73.28125 C183.447917,73.28125 176.729167,66.5520833 176.729167,58.28125 C176.729167,50.0104167 183.458333,43.2916667 191.729167,43.2916667 C199.989583,43.28125 206.729167,50.0104167 206.729167,58.28125 Z" id="Shape"></path>
          </g>
      </g>
    </g>
  </g>
</svg>
