<?xml version="1.0" standalone="no"?>
<!DOCTYPE svg PUBLIC "-//W3C//DTD SVG 20010904//EN"
 "http://www.w3.org/TR/2001/REC-SVG-20010904/DTD/svg10.dtd">
<svg version="1.0" xmlns="http://www.w3.org/2000/svg"
 width="700.000000pt" height="700.000000pt" viewBox="0 0 700.000000 700.000000"
 preserveAspectRatio="xMidYMid meet">
<metadata>
Created by potrace 1.11, written by Peter Selinger 2001-2013
</metadata>
<g transform="translate(0.000000,700.000000) scale(0.100000,-0.100000)"
fill="#000000" stroke="none">
<path d="M3288 5943 c-204 -471 -410 -963 -450 -1072 -11 -31 -24 -60 -28 -64
-4 -5 -75 79 -158 186 -229 297 -623 792 -631 795 -4 1 -15 -50 -25 -115 -120
-832 -145 -988 -155 -986 -6 2 -113 81 -238 177 -375 285 -1038 774 -1041 766
-4 -10 101 -929 148 -1288 159 -1228 324 -2020 490 -2357 62 -125 124 -208
243 -322 317 -303 892 -618 1760 -964 139 -55 263 -107 276 -116 22 -14 25
-14 40 5 9 12 110 58 246 112 907 363 1531 715 1831 1032 96 102 141 168 199
291 199 421 395 1485 590 3197 24 217 46 407 48 423 2 15 0 26 -4 25 -15 -6
-726 -536 -1033 -770 -170 -131 -312 -235 -315 -233 -2 3 -14 78 -26 167 -56
412 -140 958 -147 956 -8 -3 -372 -461 -590 -743 -136 -175 -158 -199 -158
-175 0 31 -647 1550 -660 1550 -3 0 -99 -215 -212 -477z m271 -275 c242 -566
443 -1061 592 -1463 l89 -240 -67 -59 c-126 -111 -414 -400 -499 -501 -46 -55
-107 -139 -135 -187 l-52 -88 -38 66 c-87 148 -295 377 -596 655 l-102 94 80
215 c117 314 262 680 419 1055 200 477 242 575 250 575 4 0 30 -55 59 -122z
m1201 -539 c5 -30 28 -189 51 -354 l40 -299 -23 -17 c-13 -10 -104 -84 -203
-167 l-180 -149 -82 221 c-46 122 -83 222 -83 222 0 2 293 383 390 506 41 53
76 95 78 94 1 -2 6 -27 12 -57z m-2372 -204 c82 -104 184 -237 228 -295 l81
-105 -75 -203 c-69 -185 -77 -201 -93 -190 -9 7 -102 83 -206 168 -103 85
-200 164 -215 176 l-27 21 15 109 c37 278 76 550 80 564 7 19 16 7 212 -245z
m3717 48 c-124 -1059 -264 -1909 -395 -2415 -103 -393 -166 -526 -328 -685
-250 -247 -794 -558 -1456 -834 -83 -35 -85 -35 -60 -6 34 37 245 334 341 477
307 460 509 883 559 1170 40 231 -22 580 -194 1090 l-39 116 206 171 c464 384
1371 1083 1379 1062 2 -5 -4 -71 -13 -146z m-4670 -296 c313 -239 582 -452
830 -657 l194 -160 -35 -103 c-167 -494 -230 -848 -190 -1077 50 -287 252
-710 559 -1170 88 -131 297 -426 344 -484 13 -16 22 -30 20 -32 -5 -5 -151 55
-327 134 -519 232 -905 452 -1145 653 -225 189 -300 328 -408 754 -133 523
-257 1279 -382 2343 -14 117 -25 215 -25 218 0 6 264 -190 565 -419z m2924
-1069 c117 -362 181 -675 166 -817 -29 -274 -202 -645 -528 -1136 -102 -153
-319 -457 -323 -452 -1 1 -12 97 -25 212 -20 190 -22 258 -22 725 0 567 3 598
64 792 45 141 103 232 256 399 72 78 370 369 378 369 2 0 17 -42 34 -92z
m-1379 -235 c204 -211 282 -331 328 -508 44 -168 48 -232 46 -760 -1 -437 -4
-523 -23 -684 -12 -102 -23 -186 -25 -188 -5 -6 -184 244 -303 422 -328 494
-502 869 -528 1141 -14 140 50 453 166 814 l23 69 97 -89 c53 -50 152 -147
219 -217z"/>
</g>
</svg>
